#!OML:ASF I:\Actors\actors\Patient Classification 2\Patient 1\Session 1\actor1.ASF
:FULLY-SPECIFIED
:DEGREES
566
root -0.335284 18.5405 4.4606 1.5557 -15.8034 0.885334
lowerback 37.5919 -0.797267 4.05716
upperback 16.6663 0.167598 4.58549
thorax -0.215318 -0.093095 2.64231
lowerneck -8.32808 -4.1237 2.41217
upperneck 34.4181 -7.61058 2.63881
head 12.8941 -2.71611 -0.393726
rclavicle 2.8625e-014 -2.46493e-014
rhumerus -33.5045 74.1542 -116.882
rradius 138.448
rwrist 32.5413
rhand -39.3349 -53.6539
rfingers 7.12502
rthumb -12.3266 -83.2706
lclavicle 2.8625e-014 -2.46493e-014
lhumerus -0.196443 -72.0529 95.7794
lradius 139.466
lwrist 23.8488
lhand -39.3981 -41.8566
lfingers 7.12502
lthumb -12.3875 -12.2436
rfemur -10.2742 9.15955 11.7285
rtibia 17.4613
rfoot -15.0349 -7.17903
rtoes -13.4335
lfemur -13.8251 9.74647 -16.1339
ltibia 31.3377
lfoot -20.1738 11.1464
ltoes -55.5617
567
root -0.326477 18.5272 4.44865 1.56438 -15.8929 0.86722
lowerback 37.6781 -0.850998 4.06987
upperback 16.9167 0.0822688 4.5072
thorax 0.0373131 -0.13193 2.58251
lowerneck -8.12168 -4.15089 2.30914
upperneck 34.5417 -7.59333 2.54209
head 12.9012 -2.73226 -0.405498
rclavicle 1.90833e-014 5.40694e-014
rhumerus -32.9626 73.9589 -116.195
rradius 138.215
rwrist 32.8086
rhand -39.0025 -53.2702
rfingers 7.12502
rthumb -12.0061 -82.9058
lclavicle 1.90833e-014 5.40694e-014
lhumerus -0.294324 -71.8646 95.9172
lradius 139.355
lwrist 23.2605
lhand -39.1941 -42.0459
lfingers 7.12502
lthumb -12.1908 -12.4211
rfemur -10.5785 8.91153 11.7227
rtibia 17.8992
rfoot -14.9832 -6.85681
rtoes -14.2154
lfemur -14.0304 9.84123 -16.1371
ltibia 31.6569
lfoot -20.2769 11.0865
ltoes -55.5137
568
root -0.319428 18.5162 4.43858 1.60511 -15.8656 0.87249
lowerback 37.6759 -0.947984 4.12425
upperback 17.1228 -0.0405052 4.41962
thorax 0.270986 -0.183801 2.50186
lowerneck -7.74584 -4.15794 2.14926
upperneck 34.6915 -7.58509 2.60719
head 12.8958 -2.74254 -0.341786
rclavicle -3.97569e-014 1.66979e-014
rhumerus -33.1093 73.8244 -116.157
rradius 138.107
rwrist 33.2261
rhand -38.7559 -52.8401
rfingers 7.12502
rthumb -11.7682 -82.4895
lclavicle -3.97569e-014 1.66979e-014
lhumerus -0.68513 -72.3818 96.2093
lradius 139.505
lwrist 23.9194
lhand -39.6065 -41.9865
lfingers 7.12502
lthumb -12.5884 -12.3858
rfemur -10.8465 8.6185 11.6973
rtibia 18.2416
rfoot -14.938 -6.68976
rtoes -15.2268
lfemur -14.2635 9.84639 -16.1684
ltibia 31.9026
lfoot -20.3558 11.079
ltoes -55.588
569
root -0.315368 18.5087 4.43183 1.64011 -15.8176 0.871418
lowerback 37.6427 -1.0666 4.20799
upperback 17.283 -0.178171 4.3061
thorax 0.464712 -0.238732 2.38257
lowerneck -7.48357 -4.22581 2.00849
upperneck 35.0856 -7.69257 2.66054
head 13.0213 -2.79194 -0.306194
rclavicle -1.43125e-014 2.94201e-014
rhumerus -34.0935 73.6645 -116.959
rradius 137.963
rwrist 33.7764
rhand -38.5418 -52.4127
rfingers 7.12502
rthumb -11.5618 -82.0738
lclavicle -1.43125e-014 2.94201e-014
lhumerus -1.26192 -72.5873 96.623
lradius 139.44
lwrist 23.6839
lhand -39.944 -41.2763
lfingers 7.12502
lthumb -12.9138 -11.6959
rfemur -11.0134 8.45921 11.6832
rtibia 18.439
rfoot -15.0066 -6.62727
rtoes -15.3953
lfemur -14.4269 9.99023 -16.1738
ltibia 32.0399
lfoot -20.3042 10.9604
ltoes -55.7655
570
root -0.312248 18.5067 4.43075 1.58799 -15.7908 0.872781
lowerback 37.6558 -1.21137 4.34301
upperback 17.3991 -0.326546 4.14986
thorax 0.596193 -0.293099 2.19555
lowerneck -7.31532 -4.33599 1.92963
upperneck 35.6629 -7.85057 2.58112
head 13.2397 -2.8634 -0.343518
rclavicle -1.11319e-014 -1.51076e-014
rhumerus -35.3307 73.4294 -118.051
rradius 137.766
rwrist 34.3238
rhand -38.2683 -52.1396
rfingers 7.12502
rthumb -11.298 -81.8153
lclavicle -1.11319e-014 -1.51076e-014
lhumerus -1.97474 -72.551 97.1281
lradius 139.25
lwrist 22.8229
lhand -40.0244 -40.2565
lfingers 7.12502
lthumb -12.9913 -10.681
rfemur -10.9651 8.44833 11.6738
rtibia 18.4454
rfoot -15.0894 -6.5872
rtoes -14.7289
lfemur -14.3994 10.2584 -16.1586
ltibia 32.0602
lfoot -20.1938 10.7126
ltoes -55.8527
571
root -0.308658 18.5095 4.43476 1.42401 -15.7538 0.891451
lowerback 37.7205 -1.33291 4.51013
upperback 17.4708 -0.42841 3.99524
thorax 0.66148 -0.322128 1.97982
lowerneck -7.09157 -4.44064 1.9164
upperneck 36.1729 -8.01254 2.52157
head 13.4181 -2.92862 -0.382893
rclavicle -4.77083e-015 9.54166e-014
rhumerus -36.4716 73.0286 -119.004
rradius 137.542
rwrist 34.9204
rhand -37.8757 -52.1551
rfingers 7.12502
rthumb -10.9194 -81.8512
lclavicle -4.77083e-015 9.54166e-014
lhumerus -2.78362 -72.5497 97.765
lradius 139.107
lwrist 22.4253
lhand -40.2703 -39.8426
lfingers 7.12502
lthumb -13.2283 -10.2824
rfemur -10.6545 8.47512 11.6658
rtibia 18.2264
rfoot -15.0653 -6.60985
rtoes -14.2688
lfemur -14.1689 10.4928 -16.1485
ltibia 31.9539
lfoot -20.0817 10.5643
ltoes -55.9687
572
root -0.304541 18.5163 4.44115 1.16877 -15.6765 0.914157
lowerback 37.8917 -1.46439 4.68651
upperback 17.4609 -0.523183 3.86262
thorax 0.602886 -0.349368 1.78238
lowerneck -6.8597 -4.53731 1.88399
upperneck 36.5911 -8.17792 2.53618
head 13.5616 -2.99219 -0.389433
rclavicle 3.18055e-015 -1.90833e-014
rhumerus -37.7697 72.651 -120.084
rradius 137.23
rwrist 35.4616
rhand -37.5406 -52.174
rfingers 7.12502
rthumb -10.5962 -81.8869
lclavicle 3.18055e-015 -1.90833e-014
lhumerus -3.85239 -72.7713 98.7079
lradius 139.038
lwrist 22.7062
lhand -40.5686 -39.804
lfingers 7.12502
lthumb -13.5159 -10.2626
rfemur -10.1254 8.53475 11.6701
rtibia 17.8151
rfoot -15.0044 -6.76333
rtoes -14.2981
lfemur -13.7583 10.4982 -16.1319
ltibia 31.7204
lfoot -20.0244 10.5785
ltoes -56.1084
